KRSPY-parametric-WideThinMaxGrade-maxXOPQmaxYOPQminXTRA.ufo
<glyph name="comma" format="2">
  <advance width="181"/>
  <unicode hex="002C"/>
  <outline>
    <contour>
      <point x="127" y="-154" type="line"/>
      <point x="152" y="0" type="line"/>
      <point x="152" y="68" type="line"/>
      <point x="74" y="68" type="line"/>
      <point x="64" y="50" type="line"/>
      <point x="64" y="0" type="line"/>
      <point x="113" y="0" type="line"/>
      <point x="113" y="-154" type="line"/>
    </contour>
  </outline>
</glyph>
<glyph name="period" format="2">
  <advance width="131"/>
  <unicode hex="002E"/>
  <outline>
    <contour>
      <point x="93" y="0" type="line" identifier="1m237t4hyw"/>
      <point x="103" y="20" type="line" identifier="v7N4yg5XNk"/>
      <point x="103" y="64" type="line"/>
      <point x="48" y="64" type="line" identifier="zfocDyDTCM"/>
      <point x="37" y="44" type="line"/>
      <point x="37" y="0" type="line" identifier="S4rO5KuHiL"/>
    </contour>
  </outline>
</glyph>
<glyph name="three" format="2">
  <advance width="325"/>
  <unicode hex="0033"/>
  <outline>
    <contour>
      <point x="26" y="0" type="line" identifier="O9abUc1nmN"/>
      <point x="295" y="0" type="line" identifier="kMJYMTfXCq"/>
      <point x="295" y="829" type="line" identifier="su2XmdS8e8"/>
      <point x="253" y="837" type="line" identifier="JQaOzDQqlF"/>
      <point x="253" y="840" type="line"/>
      <point x="284" y="926" type="line" identifier="S91TzLL02W"/>
      <point x="284" y="1600" type="line" identifier="xg8x2Ki40p"/>
      <point x="28" y="1600" type="line" identifier="pE1XSRiy68"/>
      <point x="28" y="1355" type="line" identifier="5lNstGRcSF"/>
      <point x="116" y="1355" type="line" identifier="AcE5xKDZfE"/>
      <point x="116" y="1530" type="line" identifier="7ogBYufWpl"/>
      <point x="196" y="1530" type="line" identifier="RHLvSX2Jv6"/>
      <point x="196" y="924" type="line" identifier="YUjTrmoWd9"/>
      <point x="166" y="841" type="line"/>
      <point x="166" y="838" type="line" identifier="iic1IBkDqp"/>
      <point x="48" y="838" type="line" identifier="lRLJEhXMlO"/>
      <point x="48" y="769" type="line" identifier="8aKgEELrVU"/>
      <point x="207" y="769" type="line" identifier="Dm8zjmbhNr"/>
      <point x="207" y="70" type="line" identifier="xv9CFHiFgB"/>
      <point x="114" y="70" type="line" identifier="YajKQV3MHP"/>
      <point x="114" y="190" type="line" identifier="36SchVkwze"/>
      <point x="26" y="190" type="line" identifier="tVui9PiOjA"/>
    </contour>
  </outline>
</glyph>
<glyph name="four" format="2">
  <advance width="344"/>
  <unicode hex="0034"/>
  <outline>
    <contour>
      <point x="192" y="0" type="line"/>
      <point x="280" y="0" type="line"/>
      <point x="280" y="774" type="line"/>
      <point x="318" y="774" type="line"/>
      <point x="318" y="843" type="line"/>
      <point x="280" y="843" type="line"/>
      <point x="280" y="1600" type="line"/>
      <point x="192" y="1600" type="line"/>
      <point x="192" y="843" type="line"/>
      <point x="114" y="843" type="line"/>
      <point x="114" y="919" type="line"/>
      <point x="158" y="1680" type="line"/>
      <point x="74" y="1680" type="line"/>
      <point x="26" y="918" type="line"/>
      <point x="26" y="774" type="line"/>
      <point x="192" y="774" type="line"/>
    </contour>
  </outline>
</glyph>
<glyph name="six" format="2">
  <advance width="325"/>
  <unicode hex="0036"/>
  <outline>
    <contour>
      <point x="30" y="0" type="line" identifier="uiw6aBUf4P"/>
      <point x="298" y="0" type="line" identifier="jtYkxiUX6G"/>
      <point x="298" y="827" type="line" identifier="2G5L37c87I"/>
      <point x="117" y="827" type="line"/>
      <point x="117" y="1370" type="line"/>
      <point x="153" y="1530" type="line"/>
      <point x="211" y="1530" type="line"/>
      <point x="211" y="1292" type="line"/>
      <point x="298" y="1292" type="line" identifier="Wuidbv6mUe"/>
      <point x="298" y="1600" type="line" identifier="oGvEEuxnYv"/>
      <point x="75" y="1600" type="line" identifier="xR3pEHbMJx"/>
      <point x="30" y="1371" type="line" identifier="KnMArb0tv8"/>
    </contour>
    <contour>
      <point x="211" y="758" type="line"/>
      <point x="211" y="70" type="line"/>
      <point x="117" y="70" type="line"/>
      <point x="117" y="758" type="line"/>
    </contour>
  </outline>
</glyph>
<glyph name="B" format="2">
  <advance width="335"/>
  <unicode hex="0042"/>
  <outline>
    <contour>
      <point x="36" y="0" type="line" identifier="hvY9r8RmLr"/>
      <point x="306" y="0" type="line" identifier="9QFpw7nfq7"/>
      <point x="306" y="741" type="line" identifier="543PerILpr"/>
      <point x="261" y="798" type="line" identifier="zhomauHW30"/>
      <point x="261" y="800" type="line" identifier="870ZhtaozS"/>
      <point x="303" y="862" type="line" identifier="eGKH52Jgnk"/>
      <point x="303" y="1600" type="line" identifier="FaP204GrdB"/>
      <point x="36" y="1600" type="line" identifier="JEev70GAj6"/>
    </contour>
    <contour>
      <point x="124" y="834" type="line" identifier="By7dfMihfe"/>
      <point x="124" y="1530" type="line" identifier="1p5hKrurVy"/>
      <point x="215" y="1530" type="line" identifier="Qby8aMtF2X"/>
      <point x="215" y="880" type="line" identifier="9lW01gQyU2"/>
      <point x="183" y="834" type="line" identifier="xpxyvIzPoc"/>
    </contour>
    <contour>
      <point x="124" y="70" type="line" identifier="jaMSiLrCua"/>
      <point x="124" y="764" type="line" identifier="XSrxNd2axx"/>
      <point x="183" y="764" type="line" identifier="VyYlzRh5nq"/>
      <point x="218" y="724" type="line" identifier="lsRGatjQja"/>
      <point x="218" y="70" type="line" identifier="xhlDJ3CjD5"/>
    </contour>
  </outline>
</glyph>
<glyph name="R" format="2">
  <advance width="345"/>
  <unicode hex="0052"/>
  <outline>
    <contour>
      <point x="124" y="820" type="line"/>
      <point x="124" y="1530" type="line"/>
      <point x="215" y="1530" type="line"/>
      <point x="215" y="865" type="line"/>
      <point x="183" y="820" type="line"/>
    </contour>
    <contour>
      <point x="316" y="0" type="line"/>
      <point x="262" y="789" type="line"/>
      <point x="303" y="848" type="line"/>
      <point x="303" y="1600" type="line"/>
      <point x="36" y="1600" type="line"/>
      <point x="36" y="0" type="line"/>
      <point x="124" y="0" type="line"/>
      <point x="124" y="750" type="line"/>
      <point x="185" y="750" type="line"/>
      <point x="231" y="0" type="line"/>
    </contour>
  </outline>
</glyph>
<glyph name="S" format="2">
  <advance width="307"/>
  <unicode hex="0053"/>
  <outline>
    <contour>
      <point x="26" y="0" type="line" identifier="09VlJ0BjUX"/>
      <point x="280" y="0" type="line" identifier="EagWihqFM8"/>
      <point x="280" y="833" type="line" identifier="KfNuQA7eZe"/>
      <point x="111" y="833" type="line" identifier="At364YZFEy"/>
      <point x="111" y="1258" type="line"/>
      <point x="149" y="1530" type="line"/>
      <point x="195" y="1530" type="line" identifier="3ZUkG35meB"/>
      <point x="195" y="1145" type="line" identifier="DTOJhFIl15"/>
      <point x="283" y="1145" type="line" identifier="9KDcrfQ5Ui"/>
      <point x="283" y="1600" type="line" identifier="SaF9ojRFrW"/>
      <point x="78" y="1600" type="line"/>
      <point x="25" y="1264" type="line"/>
      <point x="25" y="763" type="line" identifier="3sQ8t8BZ6b"/>
      <point x="193" y="763" type="line" identifier="yiV6OCBLHg"/>
      <point x="193" y="70" type="line" identifier="9kdl9SYsn8"/>
      <point x="114" y="70" type="line" identifier="yZDWuX8LLe"/>
      <point x="114" y="376" type="line" identifier="jYb9001DTm"/>
      <point x="26" y="376" type="line" identifier="ho4DrS0rdW"/>
    </contour>
  </outline>
</glyph>
<glyph name="W" format="2">
  <advance width="511"/>
  <unicode hex="0057"/>
  <outline>
    <contour>
      <point x="124" y="1600" type="line" smooth="yes" identifier="12Pyby1xY2"/>
      <point x="36" y="1600" type="line" smooth="yes" identifier="5LJg4ajoG6"/>
      <point x="36" y="0" type="line" smooth="yes" identifier="ZqTZqAY3uY"/>
      <point x="212" y="0" type="line" smooth="yes" identifier="rCeQLyjlsN"/>
      <point x="246" y="236" type="line"/>
      <point x="248" y="236" type="line"/>
      <point x="248" y="0" type="line" smooth="yes" identifier="Pkl7cZ37MU"/>
      <point x="421" y="0" type="line" smooth="yes" identifier="R4lklfJsHA"/>
      <point x="481" y="343" type="line" smooth="yes" identifier="7g7f8Wu7K4"/>
      <point x="481" y="1600" type="line" smooth="yes" identifier="RTOJW56qXy"/>
      <point x="394" y="1600" type="line" identifier="JfSFAkWGZC"/>
      <point x="394" y="343" type="line" smooth="yes" identifier="WWvGwSpq0g"/>
      <point x="352" y="70" type="line" smooth="yes" identifier="oee4nqI8Wl"/>
      <point x="304" y="70" type="line" identifier="Ljn2lpvpG8"/>
      <point x="304" y="317" type="line"/>
      <point x="304" y="1556" type="line" smooth="yes"/>
      <point x="216" y="1556" type="line"/>
      <point x="216" y="335" type="line"/>
      <point x="215" y="323" type="line"/>
      <point x="174" y="70" type="line" identifier="GlWB6PG54Z"/>
      <point x="124" y="70" type="line" identifier="iqeTRv7HXg"/>
    </contour>
  </outline>
</glyph>
<glyph name="B.narrow" format="2">
  <advance width="332"/>
  <outline>
    <contour>
      <point x="34" y="0" type="line" identifier="hvY9r8RmLr"/>
      <point x="304" y="0" type="line" identifier="9QFpw7nfq7"/>
      <point x="304" y="766" type="line" identifier="543PerILpr"/>
      <point x="252" y="824" type="line" identifier="870ZhtaozS"/>
      <point x="301" y="852" type="line" identifier="eGKH52Jgnk"/>
      <point x="301" y="1600" type="line" identifier="FaP204GrdB"/>
      <point x="34" y="1600" type="line" identifier="JEev70GAj6"/>
    </contour>
    <contour>
      <point x="122" y="828" type="line" identifier="By7dfMihfe"/>
      <point x="122" y="1530" type="line" identifier="1p5hKrurVy"/>
      <point x="213" y="1530" type="line" identifier="Qby8aMtF2X"/>
      <point x="213" y="876" type="line" identifier="9lW01gQyU2"/>
    </contour>
    <contour>
      <point x="122" y="70" type="line" identifier="jaMSiLrCua"/>
      <point x="122" y="767" type="line" identifier="XSrxNd2axx"/>
      <point x="173" y="794" type="line" identifier="VyYlzRh5nq"/>
      <point x="216" y="743" type="line" identifier="lsRGatjQja"/>
      <point x="216" y="70" type="line" identifier="xhlDJ3CjD5"/>
    </contour>
  </outline>
</glyph>
<glyph name="E.wide" format="2">
  <advance width="270"/>
  <outline>
    <contour>
      <point x="36" y="0" type="line" identifier="fZynkQ4XHB"/>
      <point x="243" y="0" type="line" identifier="FAQNpgUPxV"/>
      <point x="243" y="67" type="line" identifier="5cgTYOhATF"/>
      <point x="124" y="67" type="line" identifier="bWs42DaCgU"/>
      <point x="124" y="768" type="line" identifier="VtD2aADJmn"/>
      <point x="230" y="768" type="line" identifier="PpbsFdHAnS"/>
      <point x="230" y="832" type="line" identifier="8WuC5p8Ax5"/>
      <point x="124" y="832" type="line" identifier="m39IWn9ntA"/>
      <point x="124" y="1535" type="line" identifier="gQ21I4SHQg"/>
      <point x="242" y="1535" type="line" identifier="eqNb2VTwYs"/>
      <point x="242" y="1600" type="line" identifier="qYRmo14Il5"/>
      <point x="36" y="1600" type="line" identifier="HmJIcnLWfC"/>
    </contour>
  </outline>
</glyph>
<glyph name="F.wide" format="2">
  <advance width="284"/>
  <outline>
    <contour>
      <point x="34" y="0" type="line" identifier="oAgH2tA6DJ"/>
      <point x="122" y="0" type="line" identifier="zCZyMcW5ho"/>
      <point x="122" y="727" type="line" identifier="yHYqkMd7LI"/>
      <point x="247" y="727" type="line" identifier="NmB7yyQuio"/>
      <point x="247" y="797" type="line" identifier="wQk2C8zPHh"/>
      <point x="122" y="797" type="line" identifier="4cFHKQfHDt"/>
      <point x="122" y="1530" type="line" identifier="ZvzwyrcwpS"/>
      <point x="260" y="1530" type="line" identifier="4E754ovOIe"/>
      <point x="260" y="1600" type="line" identifier="NUrIjqOB7J"/>
      <point x="34" y="1600" type="line" identifier="TBAYuCfUFX"/>
    </contour>
  </outline>
</glyph>
<glyph name="G.wide" format="2">
  <advance width="320"/>
  <outline>
    <contour>
      <point x="28" y="0" type="line" identifier="7lPhzTnk2Z"/>
      <point x="297" y="0" type="line" identifier="qJVLZGnkwh"/>
      <point x="297" y="818" type="line" identifier="uek1NNj7De"/>
      <point x="153" y="818" type="line" identifier="qcvimxjndX"/>
      <point x="153" y="761" type="line" identifier="EARaY3Su65"/>
      <point x="210" y="761" type="line" identifier="4m6dHLVhZq"/>
      <point x="210" y="70" type="line" identifier="Y750RHTvDj"/>
      <point x="115" y="70" type="line" identifier="L2LsGnXiZ2"/>
      <point x="115" y="1253" type="line" identifier="sUWsr03vF4"/>
      <point x="156" y="1530" type="line" identifier="dbOUe6OhxL"/>
      <point x="296" y="1530" type="line" identifier="5BjRbcud80"/>
      <point x="296" y="1600" type="line" identifier="9eJelv8BOw"/>
      <point x="77" y="1600" type="line" identifier="lfZev3ICaC"/>
      <point x="28" y="1256" type="line" identifier="V1EWIdPahq"/>
    </contour>
  </outline>
</glyph>
<glyph name="K.alt" format="2">
  <advance width="332"/>
  <outline>
    <contour>
      <point x="125" y="0" type="line" identifier="wmNm7XZsaF"/>
      <point x="125" y="770" type="line" identifier="O22liaP9Qk"/>
      <point x="180" y="770" type="line" identifier="ELFBWIb1vd"/>
      <point x="220" y="737" type="line" identifier="DzXo67YEfw"/>
      <point x="220" y="0" type="line" identifier="aKpYWD78l2"/>
      <point x="307" y="0" type="line" identifier="ChS7KlqGi6"/>
      <point x="307" y="775" type="line" identifier="sWLgkU8Vey"/>
      <point x="259" y="817" type="line" identifier="Of0iQc0wBG"/>
      <point x="305" y="1600" type="line" identifier="dMJ1ywOKQQ"/>
      <point x="219" y="1600" type="line" identifier="08OWjR2YBJ"/>
      <point x="182" y="839" type="line" identifier="g4YLdZEoM3"/>
      <point x="125" y="839" type="line" identifier="uZuki3Isec"/>
      <point x="125" y="1600" type="line" identifier="nRfcNgqJ4H"/>
      <point x="38" y="1600" type="line" identifier="3XJlWt89ad"/>
      <point x="38" y="0" type="line" identifier="wdbO8kCovY"/>
    </contour>
  </outline>
</glyph>
<glyph name="K.narrow" format="2">
  <advance width="349"/>
  <outline>
    <contour>
      <point x="122" y="0" type="line"/>
      <point x="122" y="775" type="line"/>
      <point x="177" y="818" type="line"/>
      <point x="238" y="0" type="line"/>
      <point x="321" y="0" type="line"/>
      <point x="250" y="849" type="line"/>
      <point x="298" y="881" type="line"/>
      <point x="298" y="1600" type="line"/>
      <point x="211" y="1600" type="line"/>
      <point x="211" y="917" type="line"/>
      <point x="122" y="845" type="line"/>
      <point x="122" y="1600" type="line"/>
      <point x="34" y="1600" type="line"/>
      <point x="34" y="0" type="line"/>
    </contour>
  </outline>
</glyph>
<glyph name="L.wide" format="2">
  <advance width="278"/>
  <outline>
    <contour>
      <point x="34" y="0" type="line" identifier="XkJNfQlnnt"/>
      <point x="254" y="0" type="line" identifier="82EXZEgt46"/>
      <point x="254" y="70" type="line" identifier="cqpSxwFiM3"/>
      <point x="122" y="70" type="line" identifier="MbxRZRd8vz"/>
      <point x="122" y="1600" type="line" identifier="lYiaKSKITt"/>
      <point x="34" y="1600" type="line" identifier="XFf4mMUzYo"/>
    </contour>
  </outline>
</glyph>
<glyph name="N.narrow" format="2">
  <advance width="336"/>
  <outline>
    <contour>
      <point x="34" y="0" type="line" smooth="yes"/>
      <point x="122" y="0" type="line"/>
      <point x="122" y="1396" type="line"/>
      <point x="160" y="1516" type="line"/>
      <point x="214" y="1516" type="line"/>
      <point x="214" y="0" type="line" smooth="yes"/>
      <point x="302" y="0" type="line" smooth="yes"/>
      <point x="302" y="1600" type="line" smooth="yes"/>
      <point x="156" y="1600" type="line" smooth="yes"/>
      <point x="124" y="1518" type="line"/>
      <point x="121" y="1518" type="line"/>
      <point x="121" y="1600" type="line"/>
      <point x="34" y="1600" type="line"/>
    </contour>
  </outline>
</glyph>
<glyph name="N.wide" format="2">
  <advance width="408"/>
  <outline>
    <contour>
      <point x="34" y="0" type="line" identifier="CkwYPPvJLv"/>
      <point x="122" y="0" type="line" identifier="oHTJsN7drZ"/>
      <point x="122" y="1505" type="line" identifier="wfBbYd10Pm"/>
      <point x="135" y="1505" type="line" identifier="MEnBDHq6zU"/>
      <point x="272" y="0" type="line" identifier="3Nbopwznvn"/>
      <point x="374" y="0" type="line" identifier="uKfuudIUvA"/>
      <point x="374" y="1600" type="line" identifier="XRdLFXiM4t"/>
      <point x="286" y="1600" type="line" identifier="MUSJPjCIXg"/>
      <point x="286" y="100" type="line" identifier="VILP20cFmq"/>
      <point x="272" y="100" type="line" identifier="z5b04GDwRN"/>
      <point x="138" y="1600" type="line" identifier="LL64NQ6WBE"/>
      <point x="34" y="1600" type="line" identifier="dzUaaP1sjt"/>
    </contour>
  </outline>
</glyph>
<glyph name="S.wide" format="2">
  <advance width="297"/>
  <outline>
    <contour>
      <point x="26" y="0" type="line" identifier="09VlJ0BjUX"/>
      <point x="272" y="0" type="line" identifier="EagWihqFM8"/>
      <point x="272" y="830" type="line" identifier="KfNuQA7eZe"/>
      <point x="102" y="830" type="line" identifier="At364YZFEy"/>
      <point x="102" y="1258" type="line"/>
      <point x="140" y="1530" type="line"/>
      <point x="272" y="1530" type="line" identifier="3ZUkG35meB"/>
      <point x="272" y="1600" type="line" identifier="SaF9ojRFrW"/>
      <point x="78" y="1600" type="line"/>
      <point x="25" y="1264" type="line"/>
      <point x="25" y="770" type="line" identifier="3sQ8t8BZ6b"/>
      <point x="185" y="770" type="line" identifier="yiV6OCBLHg"/>
      <point x="185" y="70" type="line" identifier="9kdl9SYsn8"/>
      <point x="26" y="70" type="line" identifier="yZDWuX8LLe"/>
    </contour>
  </outline>
</glyph>
<glyph name="Z.wide" format="2">
  <advance width="320"/>
  <outline>
    <contour>
      <point x="25" y="0" type="line"/>
      <point x="294" y="0" type="line" identifier="pzdvPTirLJ"/>
      <point x="294" y="70" type="line"/>
      <point x="112" y="70" type="line"/>
      <point x="112" y="284" type="line"/>
      <point x="292" y="1440" type="line" identifier="yyb1NCCI5w"/>
      <point x="292" y="1600" type="line" identifier="5FogYRSgkk"/>
      <point x="28" y="1600" type="line" identifier="svlFvrau4c"/>
      <point x="28" y="1530" type="line"/>
      <point x="204" y="1530" type="line"/>
      <point x="204" y="1437" type="line"/>
      <point x="25" y="287" type="line" identifier="teVKnpBcVb"/>
    </contour>
  </outline>
</glyph>
<glyph name="five.wide" format="2">
  <advance width="316"/>
  <outline>
    <contour>
      <point x="28" y="0" type="line" identifier="09VlJ0BjUX"/>
      <point x="290" y="0" type="line" identifier="EagWihqFM8"/>
      <point x="290" y="818" type="line" identifier="KfNuQA7eZe"/>
      <point x="114" y="846" type="line" identifier="At364YZFEy"/>
      <point x="114" y="1530" type="line" identifier="BcuLfvaQKC"/>
      <point x="290" y="1530" type="line" identifier="3ZUkG35meB"/>
      <point x="290" y="1600" type="line" identifier="SaF9ojRFrW"/>
      <point x="26" y="1600" type="line" identifier="F4sQEYelA8"/>
      <point x="26" y="787" type="line" identifier="3sQ8t8BZ6b"/>
      <point x="202" y="759" type="line" identifier="yiV6OCBLHg"/>
      <point x="202" y="70" type="line" identifier="9kdl9SYsn8"/>
      <point x="28" y="70" type="line" identifier="yZDWuX8LLe"/>
    </contour>
  </outline>
</glyph>
<glyph name="six.wide" format="2">
  <advance width="314"/>
  <outline>
    <contour>
      <point x="22" y="0" type="line" identifier="uiw6aBUf4P"/>
      <point x="291" y="0" type="line" identifier="jtYkxiUX6G"/>
      <point x="291" y="820" type="line" identifier="2G5L37c87I"/>
      <point x="109" y="820" type="line"/>
      <point x="109" y="1380" type="line"/>
      <point x="143" y="1530" type="line"/>
      <point x="290" y="1530" type="line"/>
      <point x="290" y="1600" type="line" identifier="oGvEEuxnYv"/>
      <point x="60" y="1600" type="line" identifier="xR3pEHbMJx"/>
      <point x="22" y="1381" type="line" identifier="KnMArb0tv8"/>
    </contour>
    <contour>
      <point x="203" y="762" type="line"/>
      <point x="203" y="70" type="line"/>
      <point x="109" y="70" type="line"/>
      <point x="109" y="762" type="line"/>
    </contour>
  </outline>
</glyph>
<glyph name="three.wide" format="2">
  <advance width="321"/>
  <outline>
    <contour>
      <point x="26" y="0" type="line" identifier="O9abUc1nmN"/>
      <point x="285" y="0" type="line" identifier="kMJYMTfXCq"/>
      <point x="285" y="825" type="line" identifier="su2XmdS8e8"/>
      <point x="243" y="825" type="line" identifier="JQaOzDQqlF"/>
      <point x="243" y="828" type="line"/>
      <point x="272" y="910" type="line" identifier="S91TzLL02W"/>
      <point x="272" y="1600" type="line" identifier="xg8x2Ki40p"/>
      <point x="28" y="1600" type="line" identifier="pE1XSRiy68"/>
      <point x="28" y="1529" type="line" identifier="7ogBYufWpl"/>
      <point x="184" y="1529" type="line" identifier="RHLvSX2Jv6"/>
      <point x="184" y="910" type="line" identifier="YUjTrmoWd9"/>
      <point x="156" y="828" type="line"/>
      <point x="156" y="825" type="line" identifier="iic1IBkDqp"/>
      <point x="48" y="825" type="line" identifier="lRLJEhXMlO"/>
      <point x="48" y="782" type="line" identifier="8aKgEELrVU"/>
      <point x="197" y="782" type="line" identifier="Dm8zjmbhNr"/>
      <point x="197" y="70" type="line" identifier="xv9CFHiFgB"/>
      <point x="26" y="70" type="line" identifier="YajKQV3MHP"/>
    </contour>
  </outline>
</glyph>
